<svg xmlns="http://www.w3.org/2000/svg" viewBox="0 0 72 42">
  <title>eye</title>
  <path class="a" d="M35.56,24.79a3.82,3.82,0,0,1,.95-1.66l.87-.82a5.44,5.44,0,0,1,1.68-1l2-.66A4.36,4.36,0,0,1,43,20.55l3,.64a3.63,3.63,0,0,1,1.65.95l2.12,2.34a4.93,4.93,0,0,1,.93,1.65A6.89,6.89,0,0,1,50.9,28a6.63,6.63,0,0,1-.44,1.86L50,31a5.36,5.36,0,0,1-1.13,1.59l-1.67,1.5a3,3,0,0,1-1.74.66l-4.73,0a4.24,4.24,0,0,1-1.85-.53l-1.24-.76A4.39,4.39,0,0,1,36.29,32l-1.18-2.2a3.13,3.13,0,0,1-.26-1.86Z" transform="translate(-6.56 -6.54)"/>
  <path class="a" d="M73,20.44A10.54,10.54,0,0,0,71.57,19L65.82,14.4a5,5,0,0,1-1.2-1.54L64.23,12a2.82,2.82,0,0,0-1.35-1.27L59,9.25A13.61,13.61,0,0,0,57,8.7l-10.47-2a12,12,0,0,0-2-.17l-7.65.1A8.48,8.48,0,0,0,35,7L24.42,10.17A10.36,10.36,0,0,0,22.6,11l-7.71,4.49a4.22,4.22,0,0,0-1.34,1.38l-.36.66a10.36,10.36,0,0,1-1.14,1.63L7.22,24.53a3,3,0,0,0-.67,1.75v2.24a3.08,3.08,0,0,0,.66,1.75l8.35,9.49,1.3,1.52,2.41,2.87a4.18,4.18,0,0,0,1.59,1.08L30.4,48.4a2.77,2.77,0,0,0,1.84-.14l.19-.09a4.71,4.71,0,0,1,1.89-.42l9.37.25a11.07,11.07,0,0,0,2-.16l13.81-2.67a6.56,6.56,0,0,0,1.83-.71l3.86-2.38a11.78,11.78,0,0,0,1.58-1.21l10-9.49a2.9,2.9,0,0,0,.78-1.69l.12-2.17a3.09,3.09,0,0,0-.56-1.79ZM57.44,30.18A6.15,6.15,0,0,1,56.79,32l-1.85,3.15a4.38,4.38,0,0,1-1.38,1.35L47.38,40a4.52,4.52,0,0,1-1.87.49H35.13a2.19,2.19,0,0,1-1.58-.81l-5.23-7.31a4.23,4.23,0,0,1-.66-1.81l-.34-4.47a6.59,6.59,0,0,1,.2-2l.72-2.48a4.18,4.18,0,0,1,1-1.63l4-3.61a5.81,5.81,0,0,1,1.69-1l1.58-.54a7.21,7.21,0,0,1,1.95-.32h11a12.13,12.13,0,0,1,2,.2l.23,0a2.29,2.29,0,0,1,1.42,1.1l.48,1a16.38,16.38,0,0,0,1,1.72l3.2,4.67a3,3,0,0,1,.42,1.81Z" transform="translate(-6.56 -6.54)"/>
</svg>
